<?xml version="1.0" encoding="UTF-8" standalone="no"?>
<!DOCTYPE svg PUBLIC "-//W3C//DTD SVG 1.1//EN" "http://www.w3.org/Graphics/SVG/1.1/DTD/svg11.dtd">
<svg width="100%" height="100%" viewBox="0 0 230 48" version="1.1" xmlns="http://www.w3.org/2000/svg" xmlns:xlink="http://www.w3.org/1999/xlink" xml:space="preserve" xmlns:serif="http://www.serif.com/" style="fill-rule:evenodd;clip-rule:evenodd;stroke-linejoin:round;stroke-miterlimit:2;">
    <g id="Artboard1" transform="matrix(1,0,0,1,-831.6,-502.6)">
        <rect x="831.6" y="502.6" width="230" height="48" style="fill:none;"/>
        <clipPath id="_clip1">
            <rect x="831.6" y="502.6" width="230" height="48"/>
        </clipPath>
        <g clip-path="url(#_clip1)">
            <g transform="matrix(1,0,0,1,831.6,502.6)">
                <path d="M36.574,25.675C34.113,21.819 29.922,19.517 25.362,19.517C20.802,19.517 16.61,21.819 14.15,25.675L8.219,34.965C7.235,36.506 6.781,38.286 6.906,40.113C7.031,41.94 7.723,43.641 8.908,45.034C10.093,46.425 11.66,47.377 13.438,47.785C15.216,48.193 17.038,48.018 18.708,47.281L18.82,47.231C23.022,45.414 27.824,45.431 32.015,47.281C33.096,47.759 34.241,48 35.397,48C36.026,48 36.658,47.928 37.284,47.785C39.062,47.377 40.629,46.426 41.815,45.034C43,43.643 43.692,41.941 43.818,40.114C43.943,38.286 43.489,36.506 42.505,34.964L36.574,25.675Z" style="fill:rgb(226,0,26);fill-rule:nonzero;"/>
            </g>
            <g transform="matrix(1,0,0,1,831.6,502.6)">
                <path d="M9.816,25.662C11.581,24.982 12.921,23.554 13.59,21.642C14.227,19.823 14.175,17.769 13.443,15.858C12.71,13.949 11.378,12.39 9.69,11.469C7.917,10.501 5.97,10.344 4.209,11.025C0.665,12.394 -0.961,16.791 0.584,20.83C1.819,24.044 4.697,26.074 7.608,26.074C8.351,26.074 9.096,25.941 9.816,25.662Z" style="fill:rgb(226,0,26);fill-rule:nonzero;"/>
            </g>
            <g transform="matrix(1,0,0,1,831.6,502.6)">
                <path d="M21.323,18.384C25.753,18.384 29.357,14.261 29.357,9.193C29.357,4.124 25.753,0 21.323,0C16.894,0 13.29,4.124 13.29,9.193C13.29,14.261 16.894,18.384 21.323,18.384Z" style="fill:rgb(226,0,26);fill-rule:nonzero;"/>
            </g>
            <g transform="matrix(1,0,0,1,831.6,502.6)">
                <path d="M35.198,20.642C35.879,20.869 36.575,20.978 37.267,20.978C40.498,20.978 43.646,18.617 44.847,14.988C45.539,12.899 45.494,10.691 44.719,8.77C43.909,6.758 42.407,5.298 40.49,4.659C38.573,4.019 36.499,4.286 34.651,5.409C32.886,6.483 31.533,8.225 30.842,10.314C29.383,14.72 31.338,19.353 35.198,20.642Z" style="fill:rgb(226,0,26);fill-rule:nonzero;"/>
            </g>
            <g transform="matrix(1,0,0,1,831.6,502.6)">
                <path d="M52.116,19.57C49.061,17.304 44.491,18.285 41.93,21.759C39.371,25.235 39.771,29.908 42.821,32.176C43.934,33.004 45.248,33.399 46.593,33.399C48.938,33.399 51.377,32.197 53.008,29.988C55.567,26.511 55.167,21.838 52.116,19.57Z" style="fill:rgb(226,0,26);fill-rule:nonzero;"/>
            </g>
            <g transform="matrix(1,0,0,1,831.6,502.6)">
                <path d="M67.058,38.566L58.944,15.971L65.092,15.971L71.826,35.416L68.898,35.416L75.924,15.971L81.445,15.971L88.263,35.416L85.335,35.416L92.278,15.971L98.05,15.971L89.894,38.566L83.578,38.566L77.597,21.892L79.521,21.892L73.331,38.566L67.058,38.566Z" style="fill:rgb(226,0,26);fill-rule:nonzero;"/>
            </g>
            <g transform="matrix(1,0,0,1,831.6,502.6)">
                <path d="M101.083,38.566L101.083,15.971L107.607,15.971L107.607,38.566L101.083,38.566ZM104.345,12.821C103.146,12.821 102.17,12.471 101.417,11.771C100.664,11.071 100.288,10.203 100.288,9.167C100.288,8.131 100.664,7.263 101.417,6.563C102.17,5.863 103.146,5.513 104.345,5.513C105.544,5.513 106.52,5.849 107.273,6.521C108.026,7.165 108.402,8.005 108.402,9.041C108.402,10.133 108.026,11.043 107.273,11.771C106.548,12.471 105.572,12.821 104.345,12.821Z" style="fill:rgb(226,0,26);fill-rule:nonzero;"/>
            </g>
            <g transform="matrix(1,0,0,1,831.6,502.6)">
                <path d="M121.233,38.902C119.309,38.902 117.455,38.678 115.67,38.23C113.914,37.754 112.519,37.166 111.488,36.466L113.663,31.762C114.694,32.406 115.907,32.938 117.301,33.358C118.723,33.75 120.118,33.946 121.484,33.946C122.99,33.946 124.049,33.764 124.662,33.4C125.304,33.036 125.624,32.532 125.624,31.888C125.624,31.356 125.373,30.964 124.872,30.712C124.398,30.432 123.756,30.222 122.948,30.082C122.139,29.942 121.247,29.802 120.271,29.662C119.323,29.522 118.361,29.34 117.385,29.116C116.409,28.864 115.517,28.5 114.708,28.024C113.9,27.548 113.244,26.904 112.743,26.092C112.269,25.28 112.032,24.23 112.032,22.942C112.032,21.514 112.436,20.255 113.244,19.163C114.081,18.071 115.28,17.217 116.841,16.601C118.403,15.957 120.271,15.635 122.446,15.635C123.979,15.635 125.541,15.803 127.13,16.139C128.719,16.475 130.044,16.965 131.103,17.609L128.929,22.27C127.841,21.626 126.74,21.192 125.624,20.968C124.537,20.717 123.477,20.591 122.446,20.591C120.996,20.591 119.936,20.787 119.267,21.178C118.598,21.57 118.263,22.074 118.263,22.69C118.263,23.25 118.5,23.67 118.974,23.95C119.476,24.23 120.132,24.454 120.94,24.622C121.749,24.79 122.627,24.944 123.575,25.084C124.551,25.196 125.527,25.378 126.503,25.63C127.479,25.882 128.357,26.246 129.138,26.722C129.946,27.17 130.602,27.8 131.103,28.612C131.605,29.396 131.856,30.432 131.856,31.72C131.856,33.12 131.438,34.366 130.602,35.458C129.765,36.522 128.552,37.362 126.963,37.978C125.401,38.594 123.491,38.902 121.233,38.902Z" style="fill:rgb(226,0,26);fill-rule:nonzero;"/>
            </g>
            <g transform="matrix(1,0,0,1,831.6,502.6)">
                <path d="M149.558,15.635C151.343,15.635 152.932,15.999 154.326,16.727C155.748,17.427 156.864,18.519 157.672,20.003C158.481,21.458 158.885,23.334 158.885,25.63L158.885,38.566L152.361,38.566L152.361,26.638C152.361,24.818 151.956,23.474 151.148,22.606C150.367,21.738 149.252,21.304 147.802,21.304C146.77,21.304 145.836,21.528 145,21.976C144.191,22.396 143.55,23.054 143.076,23.95C142.63,24.846 142.406,25.994 142.406,27.394L142.406,38.566L135.882,38.566L135.882,7.403L142.406,7.403L142.406,22.228L140.943,20.339C141.751,18.827 142.908,17.665 144.414,16.853C145.92,16.041 147.635,15.635 149.558,15.635Z" style="fill:rgb(226,0,26);fill-rule:nonzero;"/>
            </g>
            <g transform="matrix(1,0,0,1,831.6,502.6)">
                <path d="M175.837,38.902C173.411,38.902 171.25,38.412 169.354,37.432C167.458,36.424 165.967,35.038 164.879,33.274C163.82,31.51 163.29,29.508 163.29,27.268C163.29,25 163.82,22.998 164.879,21.262C165.967,19.499 167.458,18.127 169.354,17.147C171.25,16.139 173.411,15.635 175.837,15.635C178.207,15.635 180.271,16.139 182.027,17.147C183.784,18.127 185.08,19.541 185.917,21.388L180.856,24.118C180.271,23.054 179.532,22.27 178.639,21.766C177.775,21.262 176.827,21.01 175.795,21.01C174.68,21.01 173.676,21.262 172.784,21.766C171.892,22.27 171.181,22.984 170.651,23.908C170.149,24.832 169.898,25.952 169.898,27.268C169.898,28.584 170.149,29.704 170.651,30.628C171.181,31.552 171.892,32.266 172.784,32.77C173.676,33.274 174.68,33.526 175.795,33.526C176.827,33.526 177.775,33.288 178.639,32.812C179.532,32.308 180.271,31.51 180.856,30.418L185.917,33.19C185.08,35.01 183.784,36.424 182.027,37.432C180.271,38.412 178.207,38.902 175.837,38.902Z" style="fill:rgb(226,0,26);fill-rule:nonzero;"/>
            </g>
            <g transform="matrix(1,0,0,1,831.6,502.6)">
                <path d="M203.476,38.566L203.476,34.156L203.057,33.19L203.057,25.294C203.057,23.894 202.625,22.802 201.761,22.018C200.924,21.234 199.628,20.843 197.871,20.843C196.672,20.843 195.487,21.038 194.316,21.43C193.173,21.794 192.197,22.298 191.388,22.942L189.046,18.365C190.273,17.497 191.751,16.825 193.48,16.349C195.208,15.873 196.965,15.635 198.749,15.635C202.179,15.635 204.842,16.447 206.738,18.071C208.634,19.695 209.582,22.228 209.582,25.672L209.582,38.566L203.476,38.566ZM196.616,38.902C194.86,38.902 193.354,38.608 192.099,38.02C190.845,37.404 189.883,36.578 189.213,35.542C188.544,34.506 188.21,33.344 188.21,32.056C188.21,30.712 188.53,29.536 189.172,28.528C189.841,27.52 190.886,26.736 192.308,26.176C193.73,25.588 195.585,25.294 197.871,25.294L203.852,25.294L203.852,29.116L198.582,29.116C197.049,29.116 195.989,29.368 195.403,29.872C194.846,30.376 194.567,31.006 194.567,31.762C194.567,32.602 194.888,33.274 195.529,33.778C196.198,34.254 197.104,34.492 198.247,34.492C199.335,34.492 200.311,34.24 201.175,33.736C202.04,33.204 202.667,32.434 203.057,31.426L204.061,34.45C203.587,35.906 202.723,37.012 201.468,37.768C200.213,38.524 198.596,38.902 196.616,38.902Z" style="fill:rgb(226,0,26);fill-rule:nonzero;"/>
            </g>
            <g transform="matrix(1,0,0,1,831.6,502.6)">
                <path d="M224.688,38.902C222.039,38.902 219.976,38.23 218.498,36.886C217.021,35.514 216.282,33.484 216.282,30.796L216.282,10.973L222.806,10.973L222.806,30.712C222.806,31.664 223.057,32.406 223.559,32.938C224.061,33.442 224.744,33.694 225.608,33.694C226.64,33.694 227.518,33.414 228.243,32.854L230,37.474C229.331,37.95 228.522,38.314 227.574,38.566C226.654,38.79 225.692,38.902 224.688,38.902ZM212.81,21.514L212.81,16.475L228.411,16.475L228.411,21.514L212.81,21.514Z" style="fill:rgb(226,0,26);fill-rule:nonzero;"/>
            </g>
        </g>
    </g>
</svg>
